<?xml version="1.0" encoding="UTF-8"?>
<svg width="150" height="48" version="1.1" viewBox="0 0 150 48" xmlns="http://www.w3.org/2000/svg">
 <g fill="#fff" stroke-width=".97074">
  <path d="m2.036 37.344v-28.009h7.6194q14.595 0 14.595 13.653 0 6.4846-4.049 10.43-4.049 3.9259-10.858 3.9259zm4.3618-24.063v20.137h3.4968q4.6195 0 7.1776-2.6954 2.5766-2.6954 2.5766-7.6174 0-9.8245-9.5886-9.8245z"/>
  <path d="m35.988 37.812q-4.3618 0-6.9752-2.7931-2.595-2.8125-2.595-7.4416 0-5.0392 2.7054-7.8713 2.7238-2.8321 7.3249-2.8321 4.417 0 6.8832 2.754 2.4662 2.754 2.4662 7.637 0 4.7853-2.6686 7.676-2.6502 2.8712-7.1408 2.8712zm0.20244-17.325q-2.503 0-3.9569 1.8555-1.4539 1.8555-1.4539 5.1173 0 3.1447 1.4723 4.9611 1.4723 1.797 3.9385 1.797 2.5213 0 3.8649-1.7774 1.3619-1.7774 1.3619-5.0588 0-3.3009-1.3619-5.0978-1.3435-1.797-3.8649-1.797z"/>
  <path d="m53.505 37.344h-4.2882v-29.61h4.2882z"/>
  <path d="m66.495 37.812q-4.3618 0-6.9752-2.7931-2.595-2.8125-2.595-7.4416 0-5.0392 2.7054-7.8713 2.7238-2.8321 7.3249-2.8321 4.417 0 6.8832 2.754 2.4661 2.754 2.4661 7.637 0 4.7853-2.6686 7.676-2.6502 2.8712-7.1408 2.8712zm0.20244-17.325q-2.503 0-3.9569 1.8555-1.4539 1.8555-1.4539 5.1173 0 3.1447 1.4723 4.9611 1.4723 1.797 3.9385 1.797 2.5213 0 3.8649-1.7774 1.3619-1.7774 1.3619-5.0588 0-3.3009-1.3619-5.0978-1.3435-1.797-3.8649-1.797z"/>
  <path d="m78.546 36.718v-4.1994q2.3925 1.9337 5.282 1.9337 3.8649 0 3.8649-2.422 0-0.68362-0.33128-1.1524-0.33128-0.4883-0.90181-0.8594-0.55213-0.37111-1.3251-0.66409-0.75457-0.29298-1.6932-0.66409-1.1594-0.48829-2.0981-1.0351-0.92021-0.54689-1.546-1.2305-0.60734-0.70315-0.92021-1.5821-0.31287-0.87894-0.31287-2.0508 0-1.4454 0.64415-2.5391 0.64415-1.1133 1.73-1.8555 1.0858-0.76174 2.4661-1.1328 1.3804-0.39064 2.8527-0.39064 2.6134 0 4.6747 0.83987v3.9649q-1.9876-1.4454-4.5642-1.4454-0.80978 0-1.4723 0.17578-0.64415 0.17578-1.1043 0.4883-0.46014 0.31251-0.71776 0.76174-0.25766 0.4297-0.25766 0.95707 0 0.64456 0.25766 1.0938 0.25766 0.44923 0.75457 0.80081 0.51532 0.33204 1.2147 0.62502 0.71776 0.27345 1.638 0.60549 1.2147 0.52736 2.1717 1.0743 0.97538 0.54689 1.6563 1.25 0.68096 0.68362 1.0491 1.6017 0.36809 0.89847 0.36809 2.1485 0 1.5235-0.66256 2.6564-0.66256 1.1328-1.7668 1.8751-1.1043 0.74221-2.5581 1.0938-1.4355 0.37111-3.0367 0.37111-3.0919 0-5.3557-1.0938z"/>
  <path d="m105.71 11.425q-0.865-0.52736-1.9692-0.52736-3.1103 0-3.1103 3.7306v2.7149h4.3802v3.5548h-4.3618v16.446h-4.2698v-16.446h-3.2208v-3.5548h3.2208v-3.2422q0-3.1642 1.9509-4.9806 1.9509-1.836 4.8771-1.836 1.5828 0 2.503 0.37111z"/>
  <path d="m115.5 37.812q-4.3618 0-6.9752-2.7931-2.595-2.8125-2.595-7.4416 0-5.0392 2.7054-7.8713 2.7238-2.8321 7.3249-2.8321 4.417 0 6.8832 2.754 2.4662 2.754 2.4662 7.637 0 4.7853-2.6686 7.676-2.6502 2.8712-7.1408 2.8712zm0.20244-17.325q-2.503 0-3.9568 1.8555-1.4539 1.8555-1.4539 5.1173 0 3.1447 1.4724 4.9611 1.4723 1.797 3.9385 1.797 2.5213 0 3.8649-1.7774 1.3619-1.7774 1.3619-5.0588 0-3.3009-1.3619-5.0978-1.3435-1.797-3.8649-1.797z"/>
  <path d="m143.89 17.342-6.2758 10.117 6.2022 9.8831h-4.9508l-3.3128-6.1916q-0.31286-0.56642-0.73617-1.4454h-0.0736q-0.0736 0.17578-0.77297 1.4454l-3.368 6.1916h-4.9323l6.4046-9.805-6.0734-10.196h4.9691l3.2575 6.5042q0.36809 0.72269 0.71777 1.4844h0.0552l4.2146-7.9886z"/>
 </g>
</svg>
